<?xml version="1.0" encoding="utf-8"?>
<!-- Generator: Adobe Illustrator 22.1.0, SVG Export Plug-In . SVG Version: 6.00 Build 0)  -->
<svg version="1.1" id="bold" xmlns="http://www.w3.org/2000/svg" xmlns:xlink="http://www.w3.org/1999/xlink" x="0px" y="0px"
	 width="300px" height="210px" viewBox="0 0 300 210" style="enable-background:new 0 0 300 210;" xml:space="preserve">
<g>
	<path style="fill:#D8D8D8;" d="M206.1,82.4h-18.9l-5.4-10.2c-3.3-6.3-9.6-10.5-16.8-10.5h-30.5c-7.2,0-13.5,3.9-16.8,10.5
		l-5.1,10.2H93.9c-10.5,0-18.9,8.4-18.9,18.9V159c0,10.2,8.1,18.6,18.6,18.6h112.9c10.2,0,18.6-8.4,18.6-18.6V101
		C224.7,90.8,216.3,82.4,206.1,82.4z M149.9,164.1c-18.9,0-34.1-15.3-34.1-34.1s15.3-34.1,34.1-34.1S184,111.1,184,130
		S168.7,164.1,149.9,164.1z"/>
	<polygon style="fill:#D8D8D8;" points="84.9,43.5 90.9,43.5 90.9,50.4 96.3,50.4 96.3,33 90.9,33 90.9,39 84.9,39 84.9,33 79.5,33 
		79.5,50.4 84.9,50.4 	"/>
	<polygon style="fill:#D8D8D8;" points="114.2,46.5 104.9,46.5 104.9,42.9 113.3,42.9 113.3,39.6 104.9,39.6 104.9,36.6 113.9,36.6 
		113.9,33 99.6,33 99.6,50.4 114.2,50.4 	"/>
	<polygon style="fill:#D8D8D8;" points="121.4,50.4 126.8,50.4 126.8,37.2 132.2,37.2 132.2,33 116,33 116,37.2 121.4,37.2 	"/>
	<path style="fill:#D8D8D8;" d="M149.9,48.6v1.8h4.8v-1.8c5.4-0.6,7.8-3,7.8-7.2s-2.7-6.6-7.8-7.2V33h-4.8v1.2
		c-5.4,0.6-7.8,3-7.8,7.2C141.8,45.6,144.5,48,149.9,48.6z M154.6,37.8c0.9,0.3,1.5,0.6,2.1,1.5c0.6,0.6,0.6,1.5,0.6,2.4
		c0,0.9-0.3,1.5-0.6,2.4c-0.6,0.6-1.2,1.2-2.1,1.2V37.8z M147.8,39.3c0.6-0.6,1.2-1.2,1.8-1.5V45c-0.9-0.3-1.5-0.6-1.8-1.5
		c-0.6-0.6-0.6-1.5-0.6-2.1C147.2,40.5,147.5,39.9,147.8,39.3z"/>
	<path style="fill:#D8D8D8;" d="M168.7,49.8c1.2,0.6,3,0.9,4.8,0.9s3.6-0.3,4.8-1.2c1.2-0.6,2.4-1.8,3-3c0.6-1.2,0.9-3,0.9-5.1
		c0-2.7-0.9-5.1-2.4-6.6s-3.9-2.4-6.6-2.4c-2.7,0-5.1,0.9-6.6,2.4c-1.5,1.5-2.4,3.9-2.4,6.6c0,2.1,0.3,3.6,1.2,5.1
		C166.6,48,167.5,49.2,168.7,49.8z M170.8,37.8c0.6-0.9,1.5-1.2,2.7-1.2c1.2,0,2.1,0.3,2.7,1.2c0.6,0.9,0.9,2.1,0.9,3.6
		c0,1.8-0.3,3.3-0.9,3.9c-0.6,0.9-1.5,1.2-2.7,1.2c-1.2,0-2.1-0.3-2.7-1.2c-0.6-0.9-0.9-2.1-0.9-3.9
		C169.9,39.9,170.2,38.7,170.8,37.8z"/>
	<polygon style="fill:#D8D8D8;" points="189.7,50.4 195.1,50.4 195.1,37.2 200.4,37.2 200.4,33 184.3,33 184.3,37.2 189.7,37.2 	"/>
	<path style="fill:#D8D8D8;" d="M206.4,49.8c1.2,0.6,3,0.9,4.8,0.9s3.6-0.3,4.8-1.2c1.2-0.6,2.4-1.8,3-3c0.6-1.2,0.9-3,0.9-5.1
		c0-2.7-0.9-5.1-2.4-6.6c-1.5-1.5-3.9-2.4-6.6-2.4c-2.7,0-5.1,0.9-6.6,2.4c-1.5,1.5-2.4,3.9-2.4,6.6c0,2.1,0.3,3.6,1.2,5.1
		C204.3,48,205.2,49.2,206.4,49.8z M208.5,37.8c0.6-0.9,1.5-1.2,2.7-1.2c1.2,0,2.1,0.3,2.7,1.2c0.6,0.9,0.9,2.1,0.9,3.6
		c0,1.8-0.3,3.3-0.9,3.9c-0.6,0.9-1.5,1.2-2.7,1.2c-1.2,0-2.1-0.3-2.7-1.2c-0.6-0.9-0.9-2.1-0.9-3.9
		C207.6,39.9,207.9,38.7,208.5,37.8z"/>
</g>
</svg>
